<svg xmlns="http://www.w3.org/2000/svg" width="121.797" height="121.797" viewBox="0 0 121.797 121.797"><defs><style>.a{fill:#62d9e3;}.b{fill:#d3fcff;}.c,.e{fill:none;}.c{stroke:#d6d6d5;stroke-width:2px;}.d{stroke:none;}</style></defs><g transform="translate(-874.602 -2379.602)"><g transform="translate(908.201 2413.201)"><g transform="translate(34.265 3.032)"><path class="a" d="M381.058,221.913v-16.9a9.529,9.529,0,1,0-19.058,0v16.9Z" transform="translate(-362 -195.443)"/></g><g transform="translate(4.759 18.842)"><path class="b" d="M355.965,228.185,344.277,216.5a9.57,9.57,0,0,0-13.534,13.534l11.688,11.688Z" transform="translate(-327.94 -213.694)"/></g><g transform="translate(28.759 37.397)"><g transform="translate(10.758)"><circle class="a" cx="3.426" cy="3.426" r="3.426"/></g><g transform="translate(0 9.252)"><circle class="a" cx="2.874" cy="2.874" r="2.874"/></g><g transform="translate(20.88 11.862)"><circle class="a" cx="2.874" cy="2.874" r="2.874"/></g></g><g transform="translate(29.933 0)"><path d="M377.357,220.579H358.3a1.3,1.3,0,0,1-1.3-1.3V202.813a10.828,10.828,0,1,1,21.656,0V219.28A1.3,1.3,0,0,1,377.357,220.579Zm-17.758-2.6h16.459V202.813a8.23,8.23,0,1,0-16.459,0Z" transform="translate(-357 -191.943)"/></g><g transform="translate(0 15.809)"><path d="M338.231,240.818a1.3,1.3,0,0,1-.919-.381l-11.688-11.688A10.869,10.869,0,1,1,341,213.376l11.688,11.688a1.3,1.3,0,0,1,0,1.837L339.15,240.437A1.3,1.3,0,0,1,338.231,240.818Zm-4.921-28.026a8.271,8.271,0,0,0-5.848,14.119l10.769,10.77,11.7-11.7-10.769-10.77A8.22,8.22,0,0,0,333.31,212.792Z" transform="translate(-322.445 -210.193)"/></g><g transform="translate(23.995 34.365)"><g transform="translate(10.757)"><path d="M367.289,241.065a4.725,4.725,0,1,1,4.725-4.725A4.731,4.731,0,0,1,367.289,241.065Zm0-6.852a2.127,2.127,0,1,0,2.127,2.127A2.13,2.13,0,0,0,367.289,234.213Z" transform="translate(-362.563 -231.614)"/></g><g transform="translate(0 9.253)"><path d="M354.319,250.642a4.174,4.174,0,1,1,4.174-4.174A4.178,4.178,0,0,1,354.319,250.642Zm0-5.748a1.575,1.575,0,1,0,1.575,1.574A1.576,1.576,0,0,0,354.319,244.894Z" transform="translate(-350.145 -242.295)"/></g><g transform="translate(20.88 11.863)"><path d="M378.422,253.654a4.173,4.173,0,1,1,4.174-4.174A4.178,4.178,0,0,1,378.422,253.654Zm0-5.748A1.574,1.574,0,1,0,380,249.481,1.576,1.576,0,0,0,378.422,247.907Z" transform="translate(-374.249 -245.308)"/></g></g><g transform="translate(46.392 30.802)"><path d="M377.3,235.3A1.3,1.3,0,0,1,376,234v-5.2a1.3,1.3,0,1,1,2.6,0V234A1.3,1.3,0,0,1,377.3,235.3Z" transform="translate(-376 -227.5)"/></g><g transform="translate(34.265 43.795)"><path d="M363.3,250.3A1.3,1.3,0,0,1,362,249v-5.2a1.3,1.3,0,1,1,2.6,0V249A1.3,1.3,0,0,1,363.3,250.3Z" transform="translate(-362 -242.5)"/></g><g transform="translate(30.8 30.802)"><path d="M359.3,235.3A1.3,1.3,0,0,1,358,234v-5.2a1.3,1.3,0,1,1,2.6,0V234A1.3,1.3,0,0,1,359.3,235.3Z" transform="translate(-358 -227.5)"/></g></g><g class="c" transform="translate(880.481 2385.481)"><circle class="d" cx="55.019" cy="55.019" r="55.019"/><circle class="e" cx="55.019" cy="55.019" r="54.019"/></g><g class="c" transform="translate(874.602 2379.602)"><circle class="d" cx="60.898" cy="60.898" r="60.898"/><circle class="e" cx="60.898" cy="60.898" r="59.898"/></g></g></svg>