<svg xmlns="http://www.w3.org/2000/svg" width="121.797" height="121.797" viewBox="0 0 121.797 121.797"><defs><style>.a{fill:#62d9e3;}.b{fill:#d3fcff;}.c,.e{fill:none;}.c{stroke:#d6d6d5;stroke-width:2px;}.d{stroke:none;}</style></defs><g transform="translate(-659.602 -2379.602)"><g transform="translate(692.36 2413.201)"><g transform="translate(15.164 12.905)"><rect class="a" width="31.771" height="13.739" rx="1.966" transform="translate(0 22.466) rotate(-45)"/></g><g transform="translate(40.059 3.19)"><g transform="translate(2.429 0)"><rect class="b" width="6.869" height="13.739" rx="1.966" transform="translate(0 4.857) rotate(-45)"/></g><g transform="translate(0 7.286)"><rect class="b" width="6.869" height="6.869" transform="translate(0 4.857) rotate(-45)"/></g></g><g transform="translate(11.944 9.686)"><path d="M89.249,493.092a3,3,0,0,1-2.14-.888l-7.287-7.286a3.028,3.028,0,0,1,0-4.282L99.859,460.6a3.007,3.007,0,0,1,2.14-.887h0a3.006,3.006,0,0,1,2.141.887l7.286,7.285a3.027,3.027,0,0,1,0,4.282L91.39,492.2A3.008,3.008,0,0,1,89.249,493.092ZM102,462.335a.4.4,0,0,0-.287.119L81.675,482.49a.408.408,0,0,0,0,.576l7.287,7.286a.354.354,0,0,0,.576,0l20.036-20.036a.407.407,0,0,0,0-.577l-7.286-7.285A.4.4,0,0,0,102,462.335Z" transform="translate(-78.935 -459.714)"/></g><g transform="translate(36.128 0)"><g transform="translate(3.141)"><path d="M120.525,464.369a3.012,3.012,0,0,1-2.141-.888l-7.286-7.287a3.03,3.03,0,0,1,0-4.281l2.429-2.429a3.1,3.1,0,0,1,4.282,0l7.287,7.286a3.032,3.032,0,0,1,0,4.282l-2.429,2.429A3.01,3.01,0,0,1,120.525,464.369Zm-4.857-13.15a.4.4,0,0,0-.288.119l-2.429,2.43a.408.408,0,0,0,0,.575l7.286,7.287a.348.348,0,0,0,.577,0l2.428-2.429a.408.408,0,0,0,0-.577l-7.286-7.286A.4.4,0,0,0,115.668,451.218Z" transform="translate(-110.213 -448.627)"/></g><g transform="translate(0 6.546)"><path d="M112.785,468.454a1.311,1.311,0,0,1-.927-.384L107,463.213a1.311,1.311,0,0,1,0-1.853l4.857-4.856a1.31,1.31,0,0,1,1.853,0l4.857,4.856a1.309,1.309,0,0,1,0,1.853l-4.857,4.858A1.309,1.309,0,0,1,112.785,468.454Zm-3-6.168,3,3,3-3-3-3Z" transform="translate(-106.617 -456.119)"/></g></g><g transform="translate(11.946 34.475)"><path d="M83.177,496.678a3.008,3.008,0,0,1-2.141-.888l-1.214-1.213a3.032,3.032,0,0,1,0-4.282l1.821-1.822a1.31,1.31,0,0,1,1.853,0l3.644,3.643a1.311,1.311,0,0,1,0,1.853l-1.821,1.821A3.009,3.009,0,0,1,83.177,496.678Zm-.607-5.425-.9.895a.409.409,0,0,0,0,.577l1.214,1.214a.347.347,0,0,0,.577,0l.895-.895Z" transform="translate(-78.937 -488.089)"/></g><g transform="translate(0 39.636)"><path d="M66.573,509.369a1.311,1.311,0,0,1-.927-2.237L78.4,494.381a1.31,1.31,0,1,1,1.853,1.853L67.5,508.985A1.307,1.307,0,0,1,66.573,509.369Z" transform="translate(-65.263 -493.997)"/></g></g><g class="c" transform="translate(665.481 2385.481)"><circle class="d" cx="55.019" cy="55.019" r="55.019"/><circle class="e" cx="55.019" cy="55.019" r="54.019"/></g><g class="c" transform="translate(659.602 2379.602)"><circle class="d" cx="60.898" cy="60.898" r="60.898"/><circle class="e" cx="60.898" cy="60.898" r="59.898"/></g></g></svg>