<svg xmlns="http://www.w3.org/2000/svg" width="121.797" height="121.797" viewBox="0 0 121.797 121.797"><defs><style>.a{fill:#62d9e3;}.b,.d{fill:none;}.b{stroke:#d6d6d5;stroke-width:2px;}.c{stroke:none;}</style></defs><g transform="translate(-1081.602 -2379.602)"><g transform="translate(1110.161 2413.201)"><g transform="translate(8.841 50.096)"><g transform="translate(44.203)"><rect class="a" width="7.858" height="4.911"/></g><rect class="a" width="7.858" height="4.911"/></g><g transform="translate(4.911 3.929)"><path class="a" d="M768.937,458.929A3.929,3.929,0,0,0,765.008,455H713.929A3.929,3.929,0,0,0,710,458.929v38.309a3.929,3.929,0,0,0,3.929,3.929h51.079a3.929,3.929,0,0,0,3.929-3.929Zm-6.876,31.433a3.929,3.929,0,0,1-3.929,3.929H720.805a3.929,3.929,0,0,1-3.929-3.929V464.823a3.929,3.929,0,0,1,3.929-3.929h37.327a3.929,3.929,0,0,1,3.929,3.929Z" transform="translate(-710 -455)"/></g><g transform="translate(0 0)"><path d="M761.481,500.114H710.4a5.41,5.41,0,0,1-5.4-5.4V456.4a5.41,5.41,0,0,1,5.4-5.4h51.079a5.41,5.41,0,0,1,5.4,5.4v38.309A5.409,5.409,0,0,1,761.481,500.114ZM710.4,453.947a2.458,2.458,0,0,0-2.456,2.456v38.309a2.458,2.458,0,0,0,2.456,2.456h51.079a2.458,2.458,0,0,0,2.456-2.456V456.4a2.458,2.458,0,0,0-2.456-2.456Zm44.2,39.291H717.279a5.41,5.41,0,0,1-5.4-5.4V462.3a5.41,5.41,0,0,1,5.4-5.4h37.327a5.409,5.409,0,0,1,5.4,5.4v25.539A5.409,5.409,0,0,1,754.605,493.238Zm-37.327-33.4a2.458,2.458,0,0,0-2.456,2.456v25.539a2.458,2.458,0,0,0,2.456,2.456h37.327a2.458,2.458,0,0,0,2.456-2.456V462.3a2.458,2.458,0,0,0-2.456-2.456Z" transform="translate(-705 -451)"/></g><g transform="translate(3.929 46.167)"><g transform="translate(44.203)"><path d="M763.332,505.858h-7.858A1.474,1.474,0,0,1,754,504.385v-4.911A1.474,1.474,0,0,1,755.473,498h7.858a1.474,1.474,0,0,1,1.473,1.473v4.911A1.474,1.474,0,0,1,763.332,505.858Zm-6.385-2.947h4.911v-1.965h-4.911Z" transform="translate(-754 -498)"/></g><path d="M718.332,505.858h-7.858A1.474,1.474,0,0,1,709,504.385v-4.911A1.474,1.474,0,0,1,710.473,498h7.858a1.474,1.474,0,0,1,1.473,1.473v4.911A1.474,1.474,0,0,1,718.332,505.858Zm-6.385-2.947h4.911v-1.965h-4.911Z" transform="translate(-709 -498)"/></g><g transform="translate(7.367 19.646)"><path d="M737.079,487.7a2.379,2.379,0,0,1-2.086-1.805l-2.98-10.964h-1.571c-.011.019-.022.035-.032.051l-1.6,2.768a2.32,2.32,0,0,1-1.929,1.123,2.07,2.07,0,0,1-1.766-.942l-2.6-3.982h-8.543a1.473,1.473,0,0,1,0-2.947h8.963a2.175,2.175,0,0,1,1.823.991l2.106,3.232,1.093-1.893a2.14,2.14,0,0,1,1.8-1.348h2.952a2.409,2.409,0,0,1,2.092,1.98l2.267,8.16,1.635-6.134a2.178,2.178,0,0,1,4.187-.1l1.039,3.39,4.143-6.034a2.069,2.069,0,0,1,1.743-1.266h7.377a1.473,1.473,0,1,1,0,2.947H750.5c-.02.031-.039.061-.056.085l-4.975,7.227a2.287,2.287,0,0,1-2.208.951,2.078,2.078,0,0,1-1.663-1.458l-.737-2.406-1.675,6.517A2.378,2.378,0,0,1,737.1,487.7Z" transform="translate(-712.5 -471)"/></g></g><g class="b" transform="translate(1087.481 2385.481)"><circle class="c" cx="55.019" cy="55.019" r="55.019"/><circle class="d" cx="55.019" cy="55.019" r="54.019"/></g><g class="b" transform="translate(1081.602 2379.602)"><circle class="c" cx="60.898" cy="60.898" r="60.898"/><circle class="d" cx="60.898" cy="60.898" r="59.898"/></g></g></svg>