<svg xmlns="http://www.w3.org/2000/svg" width="43.86" height="43.905" viewBox="0 0 43.86 43.905"><defs><style>.a{fill:#32c0cc;}</style></defs><path class="a" d="M22.411,43.9c-2.266,0-4.682-.016-7.388-.05A21.194,21.194,0,0,1,8.244,43,11,11,0,0,1,.538,34.172a35.13,35.13,0,0,1-.5-6.058c-.054-3.767-.05-7.919.011-13.067A20.922,20.922,0,0,1,.913,8.267,11,11,0,0,1,9.764.582,37.041,37.041,0,0,1,15.117.111l.049,0c.22-.007.439-.016.657-.025.775-.031,1.57-.045,2.5-.045.457,0,.913,0,1.37.008l.457,0c.693.008,1.272.011,1.825.011V0c.766.014,1.575.028,2.55.041l.016,0,.233,0c1.986.031,4.032.062,6.042.119A14.283,14.283,0,0,1,38.075,2.05a10.879,10.879,0,0,1,5.268,7.727,39.024,39.024,0,0,1,.491,6.061c.047,4.125.025,8.212-.023,13.078a20.864,20.864,0,0,1-.864,6.777A11,11,0,0,1,34.1,43.378a36.06,36.06,0,0,1-6.061.489C26.169,43.892,24.328,43.9,22.411,43.9ZM21.92,3.993c-1.859,0-3.735.016-5.577.048a39.857,39.857,0,0,0-5.549.384A7.177,7.177,0,0,0,4.578,9.881,12.54,12.54,0,0,0,4.11,13C4,17.618,3.956,21.4,3.974,24.916c.009,2.254.049,4.918.282,7.581a7.366,7.366,0,0,0,6.34,7.017,37.124,37.124,0,0,0,5.774.425l.057,0c1.485.026,3.129.039,5.174.039,1.642,0,3.331-.009,5.831-.03,1.682-.02,3.374-.115,5.029-.282A7.956,7.956,0,0,0,36.741,38a8.073,8.073,0,0,0,2.947-6.329c.118-2.382.168-4.8.217-7.147l0-.168q.027-1.367.059-2.722h-.093c0-.187,0-.373,0-.558q0-.246.005-.492v-.014c.011-1.286.023-2.743-.009-4.134-.039-1.577-.1-3.272-.27-4.986A7.39,7.39,0,0,0,33.366,4.5,35.721,35.721,0,0,0,27.5,4.041C25.657,4.009,23.778,3.993,21.92,3.993Zm-.007,29.252a11.145,11.145,0,0,1-7.947-3.266,11.344,11.344,0,0,1-3.3-8.1,10.98,10.98,0,0,1,3.322-7.895,11.42,11.42,0,0,1,8.047-3.256,11.26,11.26,0,0,1-.125,22.52Zm.011-18.564a7.3,7.3,0,1,0,7.3,7.308,7.329,7.329,0,0,0-7.3-7.308Zm11.724-1.75h-.02a2.653,2.653,0,0,1-1.891-.809,2.588,2.588,0,0,1-.754-1.857,2.641,2.641,0,0,1,2.634-2.613h.018a2.587,2.587,0,0,1,2.638,2.625A2.657,2.657,0,0,1,33.648,12.931Z"/></svg>