<svg xmlns="http://www.w3.org/2000/svg" width="29.74" height="44.408" viewBox="0 0 29.74 44.408"><defs><style>.a{fill:none;stroke:#32c0cc;stroke-width:1.7px;}</style></defs><g transform="translate(0.85 0.85)"><path class="a" d="M14.145,42.708a1.676,1.676,0,0,1-1.507-.931L1.522,19.586c-.1-.28-.217-.593-.33-.9A14.758,14.758,0,0,1,0,14.165,14.164,14.164,0,0,1,14.164,0a15.008,15.008,0,0,1,9.094,3.292,13.679,13.679,0,0,1,3.194,3.541,10.224,10.224,0,0,1,1.516,4.295,16.738,16.738,0,0,1-.218,4.562,34.4,34.4,0,0,1-.945,3.9c-.655,2.213-11.051,22-11.156,22.195A1.654,1.654,0,0,1,14.145,42.708ZM14,6.363a5.123,5.123,0,1,0,5.124,5.123A5.129,5.129,0,0,0,14,6.363Z" transform="translate(0 0)"/></g></svg>