<svg xmlns="http://www.w3.org/2000/svg" width="19.674" height="29.076" viewBox="0 0 19.674 29.076"><defs><style>.a{fill:none;stroke:#fff;stroke-width:1.7px;}</style></defs><g transform="translate(0.85 0.85)"><path class="a" d="M9.067,27.376a1.074,1.074,0,0,1-.966-.6L.976,12.554c-.063-.179-.139-.38-.212-.574A9.46,9.46,0,0,1,0,9.08,9.079,9.079,0,0,1,9.079,0a9.62,9.62,0,0,1,5.83,2.11,8.769,8.769,0,0,1,2.047,2.27,6.554,6.554,0,0,1,.972,2.753,10.729,10.729,0,0,1-.14,2.925,22.054,22.054,0,0,1-.605,2.5c-.42,1.419-7.084,14.1-7.151,14.227A1.061,1.061,0,0,1,9.067,27.376Zm-.1-23.3a3.284,3.284,0,1,0,3.284,3.284A3.288,3.288,0,0,0,8.971,4.079Z" transform="translate(0 0)"/></g></svg>