<svg xmlns="http://www.w3.org/2000/svg" width="121.797" height="121.797" viewBox="0 0 121.797 121.797"><defs><style>.a{fill:#d3fcff;}.b{fill:#62d9e3;}.c,.e{fill:none;}.c{stroke:#d6d6d5;stroke-width:2px;}.d{stroke:none;}</style></defs><g transform="translate(-1081.602 -2182.602)"><g transform="translate(1116.041 2216.201)"><g transform="translate(4.764 3.032)"><circle class="a" cx="12.032" cy="12.032" r="12.032"/></g><g transform="translate(33.932 19.526)"><circle class="b" cx="9.141" cy="9.141" r="9.141"/></g><g transform="translate(10.396 36.726)"><circle class="a" cx="9.141" cy="9.141" r="9.141"/></g><g transform="translate(5.632 33.694)"><path d="M595.9,251.3a10.44,10.44,0,1,1,10.44-10.439A10.451,10.451,0,0,1,595.9,251.3Zm0-18.281a7.841,7.841,0,1,0,7.841,7.842A7.851,7.851,0,0,0,595.9,233.017Z" transform="translate(-585.457 -230.418)"/></g><g transform="translate(0 0)"><path d="M592.288,218.185a13.332,13.332,0,1,1,13.331-13.332A13.347,13.347,0,0,1,592.288,218.185Zm0-24.065a10.733,10.733,0,1,0,10.732,10.733A10.745,10.745,0,0,0,592.288,194.121Z" transform="translate(-578.956 -191.522)"/></g><g transform="translate(0.471 11.675)"><path d="M604.188,207.6H580.8a1.3,1.3,0,1,1,0-2.6h23.389a1.3,1.3,0,1,1,0,2.6Z" transform="translate(-579.5 -205)"/></g><g transform="translate(29.167 16.494)"><path d="M623.067,231.444A10.441,10.441,0,1,1,633.507,221,10.453,10.453,0,0,1,623.067,231.444Zm0-18.282A7.842,7.842,0,1,0,630.908,221,7.851,7.851,0,0,0,623.067,213.162Z" transform="translate(-612.626 -210.563)"/></g><g transform="translate(29.924 25.535)"><path d="M632.125,223.6H614.8a1.3,1.3,0,1,1,0-2.6h17.325a1.3,1.3,0,0,1,0,2.6Z" transform="translate(-613.5 -221)"/></g><g transform="translate(6.535 42.861)"><path d="M605.125,243.6H587.8a1.3,1.3,0,0,1,0-2.6h17.325a1.3,1.3,0,1,1,0,2.6Z" transform="translate(-586.5 -241)"/></g></g><g class="c" transform="translate(1087.481 2188.481)"><circle class="d" cx="55.019" cy="55.019" r="55.019"/><circle class="e" cx="55.019" cy="55.019" r="54.019"/></g><g class="c" transform="translate(1081.602 2182.602)"><circle class="d" cx="60.898" cy="60.898" r="60.898"/><circle class="e" cx="60.898" cy="60.898" r="59.898"/></g></g></svg>