<svg xmlns="http://www.w3.org/2000/svg" width="121.797" height="121.797" viewBox="0 0 121.797 121.797"><defs><style>.a,.d{fill:none;}.a{stroke:#d6d6d5;stroke-width:2px;}.b{fill:#62d9e3;}.c{stroke:none;}</style></defs><g transform="translate(-227.602 -2182.602)"><g class="a" transform="translate(233.481 2188.481)"><circle class="c" cx="55.019" cy="55.019" r="55.019"/><circle class="d" cx="55.019" cy="55.019" r="54.019"/></g><g transform="translate(258.681 2216.201)"><g transform="translate(6.693 4.05)"><path class="b" d="M1004.112,327.493c-3.715,0-7.133,4.615-9.9,6.675-2.768-2.06-6.187-6.675-9.9-6.675a16.621,16.621,0,0,0-16.621,16.62c0,9.179,23.754,36.286,26.523,34.226,2.767,2.06,26.522-25.047,26.522-34.226A16.621,16.621,0,0,0,1004.112,327.493Z" transform="translate(-967.689 -327.493)"/></g><g transform="translate(0.961 17.485)"><path d="M988.22,363.3a2.222,2.222,0,0,1-2.326-1.536L981.5,346.631h-3.74l-2.367,3.651a2.266,2.266,0,0,1-2.059.98h-.025a2.231,2.231,0,0,1-2-.9l-3.887-5.584h-4.529a1.389,1.389,0,0,1,0-2.779h4.579a2.178,2.178,0,0,1,2.029.894l3.812,5.654,2.105-3.424a2.5,2.5,0,0,1,2.06-1.272h4.33a2.545,2.545,0,0,1,2.327,1.875l4.078,14.244,3.134-11.743a2.422,2.422,0,0,1,4.658-.085l2.023,6.652,6.894-9.792a2.479,2.479,0,0,1,1.979-1.15h6.93a1.389,1.389,0,0,1,0,2.779h-6.647l-7.3,10.355a2.431,2.431,0,0,1-2.39,1.007,2.38,2.38,0,0,1-1.906-1.67l-1.877-6.175-3.144,11.571a2.212,2.212,0,0,1-2.318,1.584Z" transform="translate(-961.5 -341.999)"/></g><g transform="translate(0)"><path d="M988.757,376.726h0a2.3,2.3,0,0,1-.382.036,2.206,2.206,0,0,1-.383.068c-5.422,0-27.528-26.775-27.528-35.709a18.022,18.022,0,0,1,18.009-18c3.213,0,5.94,2.578,8.348,4.849.54.508,1.06,1,1.554,1.431.493-.428,1.013-.919,1.554-1.429,2.407-2.27,5.135-4.844,8.347-4.844a18.029,18.029,0,0,1,18.009,18.01c0,6-8.285,16.867-11.847,21.29C1003.253,363.9,992.748,376.726,988.757,376.726Zm-.383-2.752a1.408,1.408,0,0,1,.481.086c3.663-1,24.651-24.6,24.651-32.923a15.248,15.248,0,0,0-15.231-15.231c-2.107,0-4.409,2.172-6.44,4.087a31.336,31.336,0,0,1-2.632,2.313,1.385,1.385,0,0,1-1.659,0,31.322,31.322,0,0,1-2.631-2.313c-2.031-1.915-4.333-4.087-6.441-4.087a15.248,15.248,0,0,0-15.231,15.231c0,8.322,20.987,31.917,24.652,32.923A1.414,1.414,0,0,1,988.374,373.975Z" transform="translate(-960.462 -323.12)"/></g></g><g class="a" transform="translate(227.602 2182.602)"><circle class="c" cx="60.898" cy="60.898" r="60.898"/><circle class="d" cx="60.898" cy="60.898" r="59.898"/></g></g></svg>