<svg xmlns="http://www.w3.org/2000/svg" width="121.797" height="121.797" viewBox="0 0 121.797 121.797"><defs><style>.a{fill:#62d9e3;}.b,.d{fill:none;}.b{stroke:#d6d6d5;stroke-width:2px;}.c{stroke:none;}</style></defs><g transform="translate(-444.602 -2182.602)"><g transform="translate(476.521 2216.201)"><g transform="translate(5.63 3.02)"><path class="a" d="M1271.047,342.752l-2.4-2.4,2.821-2.821a7.436,7.436,0,0,0-3.379-12.394,6.72,6.72,0,0,0-6.758,1.71l-3.095,3.1-2.4-2.4a2.265,2.265,0,0,0-3.2,0l-1.6,1.6a2.265,2.265,0,0,0,0,3.2l2.4,2.4-26.707,26.707a2.155,2.155,0,0,0-.034,3.07,2.253,2.253,0,0,1,.175,3.2l-4.175,4.174a2.928,2.928,0,0,0-.59,3.429,2.833,2.833,0,0,0,4.463.708l4.269-4.269a2.154,2.154,0,0,1,3.07-.034,2.254,2.254,0,0,0,3.2.174l26.743-26.742,2.4,2.4a2.271,2.271,0,0,0,3.2,0l1.6-1.6A2.272,2.272,0,0,0,1271.047,342.752Z" transform="translate(-1221.779 -324.832)"/></g><g transform="translate(0 0)"><path d="M1219.418,375.921a4.171,4.171,0,0,1-3.662-2.18,4.228,4.228,0,0,1,.814-4.968l4.174-4.174a.786.786,0,0,0,.2-.575,1.029,1.029,0,0,0-.327-.735,3.214,3.214,0,0,1-1.056-2.334,3.583,3.583,0,0,1,1.04-2.622l25.788-25.788-1.483-1.483a3.566,3.566,0,0,1,0-5.042l1.6-1.6a3.567,3.567,0,0,1,5.043,0l1.483,1.483,2.176-2.176a8.144,8.144,0,0,1,8.071-2.029,8.9,8.9,0,0,1,6.179,6.4,8.578,8.578,0,0,1-2.274,8.156l-1.9,1.9,1.484,1.483a3.571,3.571,0,0,1,0,5.041l-1.6,1.6a3.572,3.572,0,0,1-5.042,0l-1.483-1.484-25.824,25.825a3.34,3.34,0,0,1-2.385.964,3.624,3.624,0,0,1-2.7-1.19.652.652,0,0,0-.5-.195.99.99,0,0,0-.688.279l-4.269,4.27A4.015,4.015,0,0,1,1219.418,375.921Zm29.61-49.946a.96.96,0,0,0-.683.283l-1.6,1.6a.965.965,0,0,0,0,1.365l2.4,2.4a1.3,1.3,0,0,1,0,1.838l-26.706,26.706a.984.984,0,0,0-.279.714.647.647,0,0,0,.194.47,3.627,3.627,0,0,1,1.189,2.6,3.341,3.341,0,0,1-.964,2.483l-4.174,4.174a1.641,1.641,0,0,0-.368,1.887,1.55,1.55,0,0,0,1.379.824,1.435,1.435,0,0,0,1.024-.413l4.269-4.269a3.591,3.591,0,0,1,2.526-1.041,3.212,3.212,0,0,1,2.43,1.058,1.032,1.032,0,0,0,.762.327.776.776,0,0,0,.547-.2l26.744-26.743a1.3,1.3,0,0,1,.918-.381h0a1.3,1.3,0,0,1,.919.381l2.4,2.4a1,1,0,0,0,1.365,0l1.6-1.6a.966.966,0,0,0,0-1.366l-2.4-2.4a1.3,1.3,0,0,1,0-1.838l2.821-2.821a6,6,0,0,0,1.587-5.7,6.358,6.358,0,0,0-4.442-4.533,5.506,5.506,0,0,0-5.445,1.39l-3.095,3.1a1.3,1.3,0,0,1-1.838,0l-2.4-2.4A.96.96,0,0,0,1249.029,325.975Z" transform="translate(-1215.281 -321.347)"/></g><g transform="translate(31.248 9.499)"><path d="M1263.054,345.319a1.3,1.3,0,0,1-.918-.38l-10.411-10.411a1.3,1.3,0,0,1,1.838-1.838l10.411,10.411a1.3,1.3,0,0,1-.919,2.218Z" transform="translate(-1251.345 -332.309)"/></g><g transform="translate(36.052 4.693)"><path d="M1268.6,339.774a1.294,1.294,0,0,1-.919-.38l-10.411-10.411a1.3,1.3,0,1,1,1.838-1.838l10.411,10.411a1.3,1.3,0,0,1-.919,2.218Z" transform="translate(-1256.89 -326.764)"/></g></g><g class="b" transform="translate(450.481 2188.481)"><circle class="c" cx="55.019" cy="55.019" r="55.019"/><circle class="d" cx="55.019" cy="55.019" r="54.019"/></g><g class="b" transform="translate(444.602 2182.602)"><circle class="c" cx="60.898" cy="60.898" r="60.898"/><circle class="d" cx="60.898" cy="60.898" r="59.898"/></g></g></svg>