<svg xmlns="http://www.w3.org/2000/svg" width="121.797" height="121.797" viewBox="0 0 121.797 121.797"><defs><style>.a{fill:#62d9e3;}.b{fill:#d3fcff;}.c,.e{fill:none;}.c{stroke:#d6d6d5;stroke-width:2px;}.d{stroke:none;}</style></defs><g transform="translate(-444.602 -2379.602)"><g transform="translate(480.721 2413.201)"><g transform="translate(5.078 4.231)"><rect class="a" width="44.852" height="50.776" rx="8"/></g><g transform="translate(10.155 14.387)"><g transform="translate(20.311)"><rect class="b" width="12.694" height="6.77" rx="3.385"/></g><g transform="translate(20.311 13.54)"><rect class="b" width="12.694" height="6.77" rx="3.385"/></g><g transform="translate(20.311 25.388)"><rect class="b" width="12.694" height="6.77" rx="3.385"/></g><rect class="b" width="12.694" height="6.77" rx="3.385"/><g transform="translate(0 13.54)"><rect class="b" width="12.694" height="6.77" rx="3.385"/></g><g transform="translate(0 25.388)"><rect class="b" width="12.694" height="6.77" rx="3.385"/></g></g><g transform="translate(5.078 9.309)"><g transform="translate(20.311)"><path d="M620.717,340.309h-6.2A4.521,4.521,0,0,1,610,335.793v-.278A4.521,4.521,0,0,1,614.516,331h6.2a4.521,4.521,0,0,1,4.516,4.516v.278A4.521,4.521,0,0,1,620.717,340.309Zm-6.2-6.77a1.979,1.979,0,0,0-1.977,1.977v.278a1.979,1.979,0,0,0,1.977,1.977h6.2a1.979,1.979,0,0,0,1.977-1.977v-.278a1.979,1.979,0,0,0-1.977-1.977Z" transform="translate(-610 -331)"/><g transform="translate(6.77 0.423)"><path d="M619.269,339.963A1.269,1.269,0,0,1,618,338.693v-5.924a1.269,1.269,0,0,1,2.539,0v5.924A1.269,1.269,0,0,1,619.269,339.963Z" transform="translate(-618 -331.5)"/></g></g><g transform="translate(20.311 13.54)"><path d="M620.717,356.309h-6.2A4.521,4.521,0,0,1,610,351.793v-.278A4.521,4.521,0,0,1,614.516,347h6.2a4.521,4.521,0,0,1,4.516,4.516v.278A4.521,4.521,0,0,1,620.717,356.309Zm-6.2-6.77a1.979,1.979,0,0,0-1.977,1.977v.278a1.979,1.979,0,0,0,1.977,1.977h6.2a1.979,1.979,0,0,0,1.977-1.977v-.278a1.979,1.979,0,0,0-1.977-1.977Z" transform="translate(-610 -347)"/><g transform="translate(6.77 0.423)"><path d="M619.269,354.27A1.269,1.269,0,0,1,618,353v-4.231a1.269,1.269,0,1,1,2.539,0V353A1.269,1.269,0,0,1,619.269,354.27Z" transform="translate(-618 -347.5)"/></g></g><g transform="translate(20.311 25.388)"><path d="M620.717,370.309h-6.2A4.521,4.521,0,0,1,610,365.793v-.278A4.521,4.521,0,0,1,614.516,361h6.2a4.521,4.521,0,0,1,4.516,4.516v.278A4.521,4.521,0,0,1,620.717,370.309Zm-6.2-6.77a1.979,1.979,0,0,0-1.977,1.977v.278a1.979,1.979,0,0,0,1.977,1.977h6.2a1.979,1.979,0,0,0,1.977-1.977v-.278a1.979,1.979,0,0,0-1.977-1.977Z" transform="translate(-610 -361)"/><g transform="translate(6.77 0.423)"><path d="M619.269,369.963A1.269,1.269,0,0,1,618,368.693v-5.924a1.269,1.269,0,0,1,2.539,0v5.924A1.269,1.269,0,0,1,619.269,369.963Z" transform="translate(-618 -361.5)"/></g></g><path d="M596.717,340.309h-6.2A4.521,4.521,0,0,1,586,335.793v-.278A4.521,4.521,0,0,1,590.516,331h6.2a4.521,4.521,0,0,1,4.516,4.516v.278A4.521,4.521,0,0,1,596.717,340.309Zm-6.2-6.77a1.979,1.979,0,0,0-1.977,1.977v.278a1.979,1.979,0,0,0,1.977,1.977h6.2a1.979,1.979,0,0,0,1.977-1.977v-.278a1.979,1.979,0,0,0-1.977-1.977Z" transform="translate(-586 -331)"/><g transform="translate(6.77 0.423)"><path d="M595.269,339.963A1.269,1.269,0,0,1,594,338.693v-5.924a1.269,1.269,0,0,1,2.539,0v5.924A1.269,1.269,0,0,1,595.269,339.963Z" transform="translate(-594 -331.5)"/></g><g transform="translate(0 13.54)"><path d="M596.717,356.309h-6.2A4.521,4.521,0,0,1,586,351.793v-.278A4.521,4.521,0,0,1,590.516,347h6.2a4.521,4.521,0,0,1,4.516,4.516v.278A4.521,4.521,0,0,1,596.717,356.309Zm-6.2-6.77a1.979,1.979,0,0,0-1.977,1.977v.278a1.979,1.979,0,0,0,1.977,1.977h6.2a1.979,1.979,0,0,0,1.977-1.977v-.278a1.979,1.979,0,0,0-1.977-1.977Z" transform="translate(-586 -347)"/><g transform="translate(6.77 0.423)"><path d="M595.269,354.27A1.269,1.269,0,0,1,594,353v-4.231a1.269,1.269,0,1,1,2.539,0V353A1.269,1.269,0,0,1,595.269,354.27Z" transform="translate(-594 -347.5)"/></g></g><g transform="translate(0 25.388)"><path d="M596.717,370.309h-6.2A4.521,4.521,0,0,1,586,365.793v-.278A4.521,4.521,0,0,1,590.516,361h6.2a4.521,4.521,0,0,1,4.516,4.516v.278A4.521,4.521,0,0,1,596.717,370.309Zm-6.2-6.77a1.979,1.979,0,0,0-1.977,1.977v.278a1.979,1.979,0,0,0,1.977,1.977h6.2a1.979,1.979,0,0,0,1.977-1.977v-.278a1.979,1.979,0,0,0-1.977-1.977Z" transform="translate(-586 -361)"/><g transform="translate(6.77 0.423)"><path d="M595.269,369.963A1.269,1.269,0,0,1,594,368.693v-5.924a1.269,1.269,0,0,1,2.539,0v5.924A1.269,1.269,0,0,1,595.269,369.963Z" transform="translate(-594 -361.5)"/></g></g></g><g transform="translate(0 0)"><path d="M619.352,373.315H588.04a8.049,8.049,0,0,1-8.04-8.04V328.04a8.049,8.049,0,0,1,8.04-8.04h31.312a8.049,8.049,0,0,1,8.04,8.04v37.236A8.049,8.049,0,0,1,619.352,373.315ZM588.04,322.539a5.507,5.507,0,0,0-5.5,5.5v37.236a5.507,5.507,0,0,0,5.5,5.5h31.312a5.507,5.507,0,0,0,5.5-5.5V328.04a5.507,5.507,0,0,0-5.5-5.5Z" transform="translate(-580 -320)"/></g></g><g class="c" transform="translate(450.481 2385.481)"><circle class="d" cx="55.019" cy="55.019" r="55.019"/><circle class="e" cx="55.019" cy="55.019" r="54.019"/></g><g class="c" transform="translate(444.602 2379.602)"><circle class="d" cx="60.898" cy="60.898" r="60.898"/><circle class="e" cx="60.898" cy="60.898" r="59.898"/></g></g></svg>