<svg xmlns="http://www.w3.org/2000/svg" width="28.302" height="42.709" viewBox="0 0 28.302 42.709"><defs><style>.a{fill:none;}.b,.c{stroke:none;}.c{fill:#00bca9;}</style></defs><g class="a" transform="translate(0)"><path class="b" d="M11.321,42.709V36.071a4,4,0,0,1-3.774-3.994V29.431H4a4,4,0,0,1-4-4V4A4,4,0,0,1,4,0H24.3a4,4,0,0,1,4,4V25.431a4,4,0,0,1-4,4H20.754v2.646a4,4,0,0,1-4,4h-.716v6.631ZM5.661,16.292v4.443a3,3,0,0,0,3,3H19.642a3,3,0,0,0,3-3V16.292a3,3,0,0,0-3-3H8.661A3,3,0,0,0,5.661,16.292Z"/><path class="c" d="M 14.33800029754639 41.00860214233398 L 14.33800029754639 36.07740020751953 L 14.33800029754639 34.37740325927734 L 16.03800010681152 34.37740325927734 L 16.7544002532959 34.37740325927734 C 18.02239990234375 34.37740325927734 19.05400085449219 33.34540176391602 19.05400085449219 32.07690048217773 L 19.05400085449219 29.43090057373047 L 19.05400085449219 27.73090171813965 L 20.75399971008301 27.73090171813965 L 24.30090141296387 27.73090171813965 C 25.56940078735352 27.73090171813965 26.60140037536621 26.69930076599121 26.60140037536621 25.43130111694336 L 26.60140037536621 3.999601364135742 C 26.60140037536621 2.731601476669312 25.56940078735352 1.70000147819519 24.30090141296387 1.70000147819519 L 4.000500679016113 1.70000147819519 C 2.732000589370728 1.70000147819519 1.700000524520874 2.731601476669312 1.700000524520874 3.999601364135742 L 1.700000524520874 25.43130111694336 C 1.700000524520874 26.69930076599121 2.732000589370728 27.73090171813965 4.000500679016113 27.73090171813965 L 7.54740047454834 27.73090171813965 L 9.247400283813477 27.73090171813965 L 9.247400283813477 29.43090057373047 L 9.247400283813477 32.07690048217773 C 9.247400283813477 33.29680252075195 10.19998073577881 34.30566024780273 11.41603088378906 34.37367248535156 L 13.0211009979248 34.46345138549805 L 13.0211009979248 36.07102203369141 L 13.0211009979248 41.00860214233398 L 14.33800029754639 41.00860214233398 M 8.660700798034668 11.59120178222656 L 19.64159965515137 11.59120178222656 C 22.2330207824707 11.59120178222656 24.34130096435547 13.6998815536499 24.34130096435547 16.29180145263672 L 24.34130096435547 20.7351016998291 C 24.34130096435547 23.3265209197998 22.2330207824707 25.43480110168457 19.64159965515137 25.43480110168457 L 8.660700798034668 25.43480110168457 C 6.069280624389648 25.43480110168457 3.961000680923462 23.3265209197998 3.961000680923462 20.7351016998291 L 3.961000680923462 16.29180145263672 C 3.961000680923462 13.6998815536499 6.069280624389648 11.59120178222656 8.660700798034668 11.59120178222656 M 16.03800010681152 42.70860290527344 L 11.32110023498535 42.70860290527344 L 11.32110023498535 36.07102203369141 C 9.219930648803711 35.9535026550293 7.54740047454834 34.20700073242188 7.54740047454834 32.07690048217773 L 7.54740047454834 29.43090057373047 L 4.000500679016113 29.43090057373047 C 1.794600605964661 29.43090057373047 5.691528031093185e-07 27.63630104064941 5.691528031093185e-07 25.43130111694336 L 5.691528031093185e-07 3.999601364135742 C 5.691528031093185e-07 1.794601440429688 1.794600605964661 1.452636752219405e-06 4.000500679016113 1.452636752219405e-06 L 24.30090141296387 1.452636752219405e-06 C 26.50679969787598 1.452636752219405e-06 28.30140113830566 1.794601440429688 28.30140113830566 3.999601364135742 L 28.30140113830566 25.43130111694336 C 28.30140113830566 27.63630104064941 26.50679969787598 29.43090057373047 24.30090141296387 29.43090057373047 L 20.75399971008301 29.43090057373047 L 20.75399971008301 32.07690048217773 C 20.75399971008301 34.28280258178711 18.95940017700195 36.07740020751953 16.7544002532959 36.07740020751953 L 16.03800010681152 36.07740020751953 L 16.03800010681152 42.70860290527344 Z M 8.660700798034668 13.2912015914917 C 7.006500720977783 13.2912015914917 5.661000728607178 14.63760185241699 5.661000728607178 16.29180145263672 L 5.661000728607178 20.7351016998291 C 5.661000728607178 22.38930130004883 7.006500720977783 23.73480224609375 8.660700798034668 23.73480224609375 L 19.64159965515137 23.73480224609375 C 21.29580116271973 23.73480224609375 22.64130020141602 22.38930130004883 22.64130020141602 20.7351016998291 L 22.64130020141602 16.29180145263672 C 22.64130020141602 14.63760185241699 21.29580116271973 13.2912015914917 19.64159965515137 13.2912015914917 L 8.660700798034668 13.2912015914917 Z"/></g></svg>