<svg xmlns="http://www.w3.org/2000/svg" width="44.282" height="36.005" viewBox="0 0 44.282 36.005"><defs><style>.a{fill:#32c0cc;}</style></defs><path class="a" d="M137.812,16.051c.021.385.031.781.031,1.177,0,12.005-9.142,25.853-25.853,25.853A25.621,25.621,0,0,1,98.069,39a18.61,18.61,0,0,0,2.166.125,18.186,18.186,0,0,0,11.287-3.894,9.086,9.086,0,0,1-8.486-6.31,9.219,9.219,0,0,0,1.708.167,9.045,9.045,0,0,0,2.395-.323,9.094,9.094,0,0,1-7.288-8.913v-.115a9.03,9.03,0,0,0,4.113,1.135,9.1,9.1,0,0,1-2.811-12.13,25.8,25.8,0,0,0,18.731,9.5A9.09,9.09,0,0,1,135.365,9.95a18.171,18.171,0,0,0,5.768-2.207,9.116,9.116,0,0,1-4,5.029,18.253,18.253,0,0,0,5.217-1.426A18.406,18.406,0,0,1,137.812,16.051Z" transform="translate(-98.069 -7.076)"/></svg>