<svg xmlns="http://www.w3.org/2000/svg" width="121.797" height="121.797" viewBox="0 0 121.797 121.797"><defs><style>.a{fill:#62d9e3;}.b{fill:#d3fcff;}.c,.e{fill:none;}.c{stroke:#d6d6d5;stroke-width:2px;}.d{stroke:none;}</style></defs><g transform="translate(-874.602 -2182.602)"><g transform="translate(910.721 2215.606)"><g transform="translate(25.925 3.032)"><path class="a" d="M505.161,210.428a7.747,7.747,0,0,1-2.271,10.717h0a7.746,7.746,0,0,1-10.717-2.27l-7.452-11.461a7.746,7.746,0,0,1,2.27-10.717h0a7.746,7.746,0,0,1,10.717,2.271Z" transform="translate(-483.467 -195.443)"/></g><g transform="translate(5.627 24.49)"><path class="b" d="M472.006,241.908a7.746,7.746,0,0,1-10.717-2.27h0a7.746,7.746,0,0,1,2.271-10.717l11.46-7.452a7.746,7.746,0,0,1,10.717,2.27h0a7.746,7.746,0,0,1-2.27,10.717Z" transform="translate(-460.035 -220.214)"/></g><g transform="translate(33.344 36.647)"><path class="a" d="M501.778,248.7a4.927,4.927,0,0,1-5.841,3.8h0a4.926,4.926,0,0,1-3.8-5.841l1.8-8.5a4.927,4.927,0,0,1,5.841-3.8h0a4.927,4.927,0,0,1,3.8,5.841Z" transform="translate(-492.031 -234.248)"/></g><g transform="translate(20.298 0)"><path d="M493.474,221.5a9.022,9.022,0,0,1-7.59-4.115l-7.453-11.461a9.046,9.046,0,1,1,15.167-9.862l7.452,11.461a9.046,9.046,0,0,1-7.576,13.978Zm-7.467-26.955a6.448,6.448,0,0,0-5.4,9.963l7.452,11.461a6.448,6.448,0,0,0,10.81-7.031l-7.452-11.461A6.434,6.434,0,0,0,486.007,194.542Z" transform="translate(-476.971 -191.943)"/></g><g transform="translate(25.803 9.503)"><path d="M484.627,213.046a1.3,1.3,0,0,1-.69-2.4l12.077-7.535a1.3,1.3,0,1,1,1.376,2.2l-12.077,7.535A1.292,1.292,0,0,1,484.627,213.046Z" transform="translate(-483.326 -202.913)"/></g><g transform="translate(0 21.458)"><path d="M462.59,242.26a9.047,9.047,0,0,1-4.938-16.63l11.461-7.453a9.046,9.046,0,0,1,9.862,15.168l-11.46,7.453A9.024,9.024,0,0,1,462.59,242.26Zm11.446-22.947a6.421,6.421,0,0,0-3.508,1.043l-11.461,7.452a6.447,6.447,0,1,0,7.03,10.81l11.461-7.453a6.447,6.447,0,0,0-3.522-11.852Z" transform="translate(-453.539 -216.714)"/></g><g transform="translate(9.914 26.966)"><path d="M473.82,237.749a1.3,1.3,0,0,1-1.1-.612l-7.536-12.077a1.3,1.3,0,0,1,2.2-1.376l7.536,12.077a1.3,1.3,0,0,1-1.1,1.987Z" transform="translate(-464.984 -223.073)"/></g><g transform="translate(27.712 33.616)"><path d="M491.763,251.707a6.227,6.227,0,0,1-6.1-7.517l1.8-8.506a6.252,6.252,0,0,1,6.086-4.936,6.331,6.331,0,0,1,1.294.135,6.235,6.235,0,0,1,4.8,7.382l-1.8,8.5A6.252,6.252,0,0,1,491.763,251.707Zm1.793-18.359a3.643,3.643,0,0,0-3.545,2.876l-1.8,8.5a3.627,3.627,0,0,0,2.8,4.3,3.669,3.669,0,0,0,4.3-2.8l1.8-8.5a3.632,3.632,0,0,0-2.8-4.3A3.592,3.592,0,0,0,493.556,233.348Z" transform="translate(-485.529 -230.749)"/></g><g transform="translate(29.349 41.715)"><path d="M497.449,244.739a1.349,1.349,0,0,1-.3-.034l-8.727-2.043a1.3,1.3,0,0,1,.592-2.531l8.728,2.043a1.3,1.3,0,0,1-.295,2.565Z" transform="translate(-487.42 -240.098)"/></g></g><g class="c" transform="translate(880.481 2188.481)"><circle class="d" cx="55.019" cy="55.019" r="55.019"/><circle class="e" cx="55.019" cy="55.019" r="54.019"/></g><g class="c" transform="translate(874.602 2182.602)"><circle class="d" cx="60.898" cy="60.898" r="60.898"/><circle class="e" cx="60.898" cy="60.898" r="59.898"/></g></g></svg>