<svg xmlns="http://www.w3.org/2000/svg" xmlns:xlink="http://www.w3.org/1999/xlink" width="158" height="38.776" viewBox="0 0 158 38.776"><defs><style>.a{fill:none;}.b{clip-path:url(#a);}.c{fill:#32c0cc;}</style><clipPath id="a"><rect class="a" width="158" height="38.776"/></clipPath></defs><g class="b"><path class="c" d="M530.994,281.5a11.042,11.042,0,0,1,2.854.373V283.8a9.149,9.149,0,0,0-2.854-.456,9.278,9.278,0,0,0-9.252,9.27v13.929h-1.859V292.614A11.129,11.129,0,0,1,530.994,281.5Z" transform="translate(-519.448 -281.069)"/><path class="c" d="M522.183,306.984h-2.728V292.62A11.564,11.564,0,0,1,531,281.075a11.551,11.551,0,0,1,2.965.388l.323.084v2.859l-.568-.187a8.8,8.8,0,0,0-2.72-.432,8.845,8.845,0,0,0-8.818,8.834Zm-1.858-.87h.988V292.62a9.715,9.715,0,0,1,9.688-9.7,9.567,9.567,0,0,1,2.419.311v-1.005a10.708,10.708,0,0,0-2.419-.277,10.693,10.693,0,0,0-10.675,10.675Z" transform="translate(-519.455 -281.075)"/><g transform="translate(47.033 0.929)"><path class="c" d="M566.519,307.12a11.443,11.443,0,0,1-2.854-.373v-1.924a9.542,9.542,0,0,0,2.854.44,9.254,9.254,0,0,0,9.253-9.27V282.419h1.856v13.575a11.126,11.126,0,0,1-11.109,11.126Z" transform="translate(-563.231 -281.983)"/><path class="c" d="M566.525,307.561a11.933,11.933,0,0,1-2.962-.386l-.326-.082v-2.855l.565.177a9.11,9.11,0,0,0,2.724.42A8.819,8.819,0,0,0,575.343,296V281.99h2.727V296a11.561,11.561,0,0,1-11.544,11.561Zm-2.418-1.149a10.884,10.884,0,0,0,2.418.28A10.7,10.7,0,0,0,577.2,296V282.86h-.987V296a9.687,9.687,0,0,1-9.688,9.7,9.866,9.866,0,0,1-2.418-.3Z" transform="translate(-563.237 -281.99)"/></g><g transform="translate(67.375 0.929)"><path class="c" d="M604.7,282.419v14.013a11.135,11.135,0,1,1-22.271,0V282.419h1.859v14.013a9.286,9.286,0,0,0,18.572,0V282.419Z" transform="translate(-581.995 -281.983)"/><path class="c" d="M593.58,308.017A11.561,11.561,0,0,1,582,296.439V281.99h2.728v14.449a8.851,8.851,0,0,0,17.7,0V281.99h2.71v14.449a11.556,11.556,0,0,1-11.561,11.578ZM582.87,282.86v13.579a10.7,10.7,0,1,0,21.4,0V282.86H603.3v13.579a9.721,9.721,0,1,1-19.442,0V282.86Z" transform="translate(-582.001 -281.99)"/></g><path class="c" d="M624.09,299.342l.672-1.829.384-.2-8.116-15.318h-3.059l9.531,18.1.386-.2h0l.386-.2Z" transform="translate(-512.847 -281.061)"/><g transform="translate(94.474 0.776)"><path class="c" d="M621.112,310.629c-1.425,1.954-3.634,5.63-2.572,7.288a2.97,2.97,0,0,0,5.145,0C624.747,316.256,622.538,312.582,621.112,310.629Z" transform="translate(-607.256 -281.403)"/><path class="c" d="M624.392,301.837l10.506-20h-3.058l-9,17.058Z" transform="translate(-607.187 -281.84)"/><path class="c" d="M621.024,301.833,610.48,281.84h-3.059l13.856,26.374,1.55-2.95Z" transform="translate(-607.421 -281.84)"/></g><path class="c" d="M558.48,299.155a10.609,10.609,0,0,1-9.586,6.047,10.653,10.653,0,0,1-10.623-9.6h23.986l.056-1.094c0-.349-.024-.762-.07-1.237a13.465,13.465,0,1,0-5.6,12.16,13.258,13.258,0,0,0,4.792-6.278Zm-16.756-12.578a10.689,10.689,0,0,1,17.736,6.3H538.327A10.31,10.31,0,0,1,541.723,286.577Z" transform="translate(-517.918 -281.075)"/><path class="c" d="M657.936,299.155a10.609,10.609,0,0,1-9.586,6.047,10.653,10.653,0,0,1-10.623-9.6h23.985l.057-1.094c0-.349-.024-.762-.07-1.237a13.465,13.465,0,1,0-5.6,12.16,13.256,13.256,0,0,0,4.792-6.278Zm-16.756-12.578a10.689,10.689,0,0,1,17.736,6.3H637.783A10.31,10.31,0,0,1,641.179,286.577Z" transform="translate(-511.235 -281.075)"/><g transform="translate(151.183 0.776)"><path class="c" d="M663.092,282.354h-1.084v-.514h2.777v.514H663.7v2.757h-.607Z" transform="translate(-662.008 -281.84)"/><path class="c" d="M668.2,285.111l-.006-2.168-1.074,1.795h-.271l-1.075-1.766v2.14h-.58V281.84h.5l1.3,2.168,1.277-2.168h.5l.005,3.271Z" transform="translate(-661.96 -281.84)"/></g></g></svg>